<svg xmlns="http://www.w3.org/2000/svg" viewBox="0 0 150 150">
	<title>Logo-vertical</title>
	<path d="M0,124.7c0-0.3,0-0.6,0.6-0.6H15c0.3,0,0.6,0,0.6,0.6v4.2c0,0.3,0,0.6-0.6,0.6H6v5.4h7.5c0.3,0,0.6,0,0.6,0.6v4.2
		c0,0.3,0,0.6-0.6,0.6H6v8.4c0,0.3,0,0.6-0.6,0.6H0.6c-0.3,0-0.6,0-0.6-0.6V124.7z"/>
	<path d="M18.3,140c-0.3,0-0.6,0-0.6-0.6v-4.2c0-0.3,0.3-0.3,0.6-0.3h7.5c0.3,0,0.6,0,0.6,0.6v4.2c0,0.3,0,0.6-0.6,0.6h-7.5V140z"/>
	<path d="M34.5,130.7c0,1.5,0.9,2.1,4.8,3c5.4,1.5,7.2,3.6,7.2,7.8c0,5.4-4.5,7.5-9.6,7.5c-2.4,0-5.1-0.6-7.2-1.8
		c-0.3,0-0.3-0.3-0.3-0.6v-3.3c0-0.3,0-0.3,0.3-0.3c0.6,0,3.9,0.9,6.9,0.9c2.7,0,4.2-0.6,4.2-2.4c0-1.8-1.2-2.1-4.5-3
		c-5.4-1.5-7.5-3.6-7.5-7.5c0-4.8,3.9-7.5,8.7-7.5c2.4,0,5.1,0.6,7.2,1.8c0.3,0.3,0.3,0.3,0.3,0.6v3.3c0,0.3,0,0.3-0.3,0.3l0,0
		c-0.6,0-3.6-0.9-6.9-0.9C35.4,128.6,34.5,129.5,34.5,130.7z"/>
	<path d="M54.9,140.9c0.3,2.7,1.8,3.3,4.8,3.3c3,0,5.7-0.9,6.3-0.9c0.3,0,0.3,0,0.3,0.3v3c0,0.3-0.3,0.6-0.6,0.6
		c-2.4,0.9-4.8,1.5-7.2,1.5c-6,0-9.6-2.7-9.6-9.6c0-6.3,3.6-9.9,9.3-9.9c6.6,0,8.7,3.9,8.7,9.3v1.5c0,0.3,0,0.6-0.6,0.6L54.9,140.9z
		M54.9,137.6h6.6c0-2.7-0.9-3.9-3-3.9C56.4,134,54.9,134.9,54.9,137.6L54.9,137.6z"/>
	<path d="M78.9,129.8c2.1,0,4.2,0.6,6.3,1.5c0.3,0.3,0.3,0.3,0.3,0.6v3c0,0.3,0,0.3-0.3,0.3c-0.6,0-2.7-0.6-5.4-0.6
		c-3.3,0-4.5,1.8-4.5,5.1c0,3.3,1.2,5.1,4.5,5.1c2.7,0,5.1-0.9,5.7-0.9c0.3,0,0.3,0.3,0.3,0.3v3c0,0.3,0,0.6-0.3,0.6
		c-2.1,0.9-4.2,1.5-6.6,1.5c-6.3,0-9.3-3.9-9.3-9.9C69.6,133.4,72.3,129.8,78.9,129.8z"/>
	<path d="M97.5,149.3c-5.1,0-9-1.5-9-7.5v-11.1c0-0.3,0-0.6,0.6-0.6h5.1c0.3,0,0.6,0,0.6,0.6v10.2c0,2.4,0.9,3.6,3.3,3.6
		c0.9,0,2.1,0,3,0v-13.8c0-0.3,0-0.6,0.6-0.6h5.1c0.3,0,0.6,0,0.6,0.6v17.4c0,0.3,0,0.3-0.3,0.6C103.5,148.7,100.5,149.3,97.5,149.3z
		"/>
	<path d="M119.4,134.6c-0.9,0-1.8,0-2.7,0.3v13.5c0,0.3,0,0.6-0.6,0.6H111c-0.3,0-0.6,0-0.6-0.6v-16.5c0-0.3,0-0.6,0.3-0.6
		c2.4-0.9,4.8-1.5,7.2-1.5c1.5,0,3,0,4.5,0.6c0.3,0,0.3,0.3,0.3,0.3v3.9c0,0.3,0,0.3-0.3,0.3C121.8,134.6,120.6,134.6,119.4,134.6z"
		/>
	<path d="M130.2,140.9c0.3,2.7,1.8,3.3,4.8,3.3s5.7-0.9,6.3-0.9c0.3,0,0.3,0,0.3,0.3v3c0,0.3-0.3,0.6-0.6,0.6
		c-2.4,0.9-4.8,1.5-7.2,1.5c-6,0-9.6-2.7-9.6-9.6c0-6.3,3.6-9.9,9.3-9.9c6.6,0,8.7,3.9,8.7,9.3v1.5c0,0.3,0,0.6-0.6,0.6L130.2,140.9z
		M130.2,137.6h6.6c0-2.7-0.9-3.9-3-3.9C131.7,134,130.5,134.9,130.2,137.6z"/>
	<path d="M129,11C92.7-1.6,54.6-2.2,20.7,8c-7.2,2.1-9,8.4-7.8,13.5c2.1,8.4,4.8,16.8,8.1,24.9c0,0.3,0.3,0,0,0
		c-0.3-3.9,2.4-8.7,8.1-10.5c32.1-9.9,60-7.5,84.9,0.9c4.2,1.5,8.7-0.9,10.2-5.1c0,0,0,0,0-0.3c3.3-10.5,4.8-18,5.1-19.8
		C129.3,11.3,129.3,11,129,11z"/>
	<path d="M45,35c-4.2,0.9-9.9,2.4-14.4,3.6c-8.7,3-8.4,13.5-3.6,16.8c0.3-2.1,2.4-4.5,4.8-5.4c8.7-3.3,18-5.4,27.3-6.3
		C54,41.6,49.2,38.6,45,35z"/>
	<path d="M114,56.3c-25.2-12-55.2-12.9-80.1-3.3c-4.2,1.5-6.3,6.3-4.5,10.2c0,0.3,0.3,0.6,0.6,1.2c4.5,8.1,9.6,15.9,15.3,23.4
		c-0.9-2.7,0.6-8.1,6.3-9.9c15.3-4.8,31.5-2.7,42,1.5c3.6,1.5,7.5,0,9.6-3c5.4-7.8,10.2-17.4,11.1-19.5
		C114.3,56.6,114.3,56.3,114,56.3L114,56.3z"/>
	<path d="M89.1,94.1c-2.7-0.9-9.6-6-12.3-8.7c-1.8-1.8-4.2-3.9-6.6-6.9c-5.7,0-11.7,0.6-17.7,2.4c-5.7,1.8-6,8.4-3.6,11.7
		c4.2,5.1,7.2,8.1,11.7,12.9c4.8,5.1,13.5,5.1,18.6,0c3.6-3.6,6-6,9.9-10.8C89.4,94.7,89.4,94.4,89.1,94.1L89.1,94.1z"/>
	<path d="M150,146.5c0,1.2-0.9,2.1-2.2,2.1c-1.2,0-2.2-0.9-2.2-2.1c0-1.2,1-2.1,2.2-2.1C149.1,144.4,150,145.3,150,146.5z
		M146.2,146.5c0,0.9,0.7,1.7,1.6,1.7c0.9,0,1.6-0.7,1.6-1.7c0-0.9-0.7-1.7-1.6-1.7C146.9,144.8,146.2,145.6,146.2,146.5z
		M147.5,147.6H147v-2.1c0.2,0,0.5-0.1,0.8-0.1c0.4,0,0.6,0.1,0.7,0.2c0.1,0.1,0.2,0.3,0.2,0.5c0,0.2-0.2,0.4-0.4,0.5v0
		c0.2,0.1,0.3,0.2,0.4,0.5c0.1,0.3,0.1,0.4,0.2,0.5h-0.5c-0.1-0.1-0.1-0.3-0.2-0.5c0-0.2-0.2-0.3-0.4-0.3h-0.2V147.6z M147.5,146.4
		h0.2c0.3,0,0.5-0.1,0.5-0.3c0-0.2-0.1-0.3-0.4-0.3c-0.1,0-0.2,0-0.3,0V146.4z"/>
</svg>
