<svg xmlns="http://www.w3.org/2000/svg" viewBox="0 0 300 90">
	<title>Logo-horizontal</title>
	<path d="M0,40.2c0-0.6,0-0.6,0.6-0.6h21.3c0.6,0,0.6,0,0.6,0.6v6.3c0,0.6,0,0.6-0.6,0.6H8.7v7.8h11.1c0.6,0,0.6,0,0.6,0.6v6.3
		c0,0.6,0,0.6-0.6,0.6H8.7v12c0,0.6,0,0.6-0.6,0.6H0.6C0,75,0,75,0,74.4V40.2z"/>
	<path d="M26.7,62.7c-0.6,0-0.6,0-0.6-0.6v-6.3c0-0.6,0-0.6,0.6-0.6h10.8c0.6,0,0.6,0,0.6,0.6v6.3c0,0.6,0,0.6-0.6,0.6H26.7z"/>
	<path d="M50.4,49.2c0,2.4,1.5,2.7,6.9,4.5c7.8,2.1,10.5,5.1,10.5,11.1c0,7.8-6.6,11.1-14.1,11.1c-4.2,0-8.4-1.2-10.5-2.4
		c-0.3,0-0.6-0.6-0.6-0.9v-4.8c0-0.3,0-0.6,0.6-0.6c0.9,0,5.4,1.2,9.9,1.2c3.9,0,6-0.9,6-3.3c0-2.4-1.8-3-6.6-4.2
		c-8.1-2.1-10.8-5.1-10.8-11.1c0-6.9,5.7-11.1,12.6-11.1c3.6,0,7.2,0.9,10.5,2.4c0.3,0.3,0.6,0.3,0.6,0.9v4.8c0,0.3,0,0.6-0.3,0.6
		l0,0c-0.9,0-5.4-1.2-9.9-1.2C51.6,46.2,50.4,47.4,50.4,49.2z"/>
	<path d="M79.8,64.2c0.3,3.9,2.4,5.1,7.2,5.1s8.1-1.2,9-1.2c0.3,0,0.6,0,0.6,0.6v4.5c0,0.6-0.3,0.6-0.6,0.9
		c-3.3,1.5-6.9,2.1-10.5,2.1c-9,0-14.1-4.2-14.1-14.1c0-9.3,5.1-14.4,13.8-14.4c9.6,0,12.6,5.7,12.6,13.5v2.1c0,0.6,0,0.6-0.6,0.6
		L79.8,64.2L79.8,64.2z M79.5,59.4h9.6c0-3.9-1.2-5.4-4.5-5.4C81.9,53.7,79.8,55.5,79.5,59.4L79.5,59.4z"/>
	<path d="M114.6,47.7c3.3,0,6.3,0.9,9.3,2.1c0.6,0.3,0.6,0.3,0.6,0.9v4.2c0,0.3,0,0.6-0.3,0.6c-0.9,0-4.2-0.9-7.8-0.9
		c-4.8,0-6.6,2.4-6.6,7.2s1.8,7.2,6.6,7.2c3.9,0,7.2-1.2,8.1-1.2c0.3,0,0.3,0.3,0.3,0.6v4.5c0,0.6,0,0.6-0.6,0.9
		c-3,1.2-6.3,2.1-9.3,2.1c-9.3,0-13.5-5.7-13.5-14.1S105.3,47.7,114.6,47.7z"/>
	<path d="M141.9,75.9c-7.5,0-12.9-2.4-12.9-11.1V48.6c0-0.6,0-0.6,0.6-0.6h7.2c0.6,0,0.6,0,0.6,0.6v15c0,3.6,1.2,5.4,4.8,5.4
		c1.5,0,3,0,4.2-0.3V48.6c0-0.6,0-0.6,0.6-0.6h7.2c0.6,0,0.6,0,0.6,0.6v25.2c0,0.6,0,0.6-0.6,0.6C150.3,75.3,146.1,75.9,141.9,75.9z"
		/>
	<path d="M173.7,54.6c-1.2,0-2.7,0-3.9,0.6v19.5c0,0.6,0,0.6-0.6,0.6H162c-0.6,0-0.6,0-0.6-0.6V50.4c0-0.3,0.3-0.6,0.6-0.6
		c3.3-1.2,6.6-2.1,10.5-2.1c2.1,0,4.5,0.3,6.6,0.9c0.3,0,0.3,0.3,0.3,0.6v5.4c0,0.6-0.3,0.6-0.6,0.6
		C177.9,54.9,176.4,54.6,173.7,54.6z"/>
	<path d="M189.6,64.2c0.3,3.9,2.4,5.1,7.2,5.1c4.8,0,8.1-1.2,9-1.2c0.3,0,0.6,0,0.6,0.6v4.5c0,0.6-0.3,0.6-0.6,0.9
		c-3.3,1.5-6.9,2.1-10.5,2.1c-9,0-14.1-3.9-14.1-13.8c0-9.3,5.1-14.4,13.5-14.4c9.6,0,12.6,5.7,12.6,13.5v2.1c0,0.6,0,0.6-0.6,0.6
		L189.6,64.2z M189.6,59.4h9.6c0-3.9-1.2-5.4-4.5-5.4C191.7,53.7,189.6,55.5,189.6,59.4z"/>
	<path d="M299.7,11.4C272.1,1.8,243,1.2,217.5,9c-5.4,1.8-6.9,6.3-6,10.2c1.5,6.6,3.6,12.9,6,18.9l0,0c-0.3-3,1.8-6.6,6.3-7.8
		c24.3-7.5,45.6-5.7,64.5,0.9c3.3,1.2,6.6-0.6,7.8-3.9l0,0c1.5-5.1,3-10.2,3.9-15.3C300,11.7,300,11.4,299.7,11.4z"/>
	<path d="M235.8,29.7c-3.6,0.6-7.2,1.8-10.8,2.7c-6.6,2.4-6.3,10.2-2.7,12.9c0.3-1.5,1.8-3.6,3.6-4.2c6.6-2.7,13.8-4.2,20.7-4.8
		C242.7,34.8,238.8,32.4,235.8,29.7z"/>
	<path d="M288.3,45.6c-19.2-9-42-9.9-60.9-2.4c-3,1.2-4.8,4.8-3.6,7.8c0,0.3,0.3,0.6,0.3,0.9c3.3,6.3,7.2,12.3,11.7,17.7
		c-0.6-2.1,0.6-6.3,4.8-7.5c11.7-3.6,24-2.1,32.1,1.2c2.7,1.2,5.7,0,7.5-2.4c3-4.8,6-9.9,8.4-15C288.6,46.2,288.6,45.9,288.3,45.6
		L288.3,45.6z"/>
	<path d="M269.4,74.4c-2.1-0.6-7.2-4.8-9.3-6.6c-1.2-1.2-3-3-5.1-5.1c-4.5,0-9,0.6-13.5,1.8c-4.2,1.2-4.8,6.3-2.7,9
		c3.3,3.9,5.4,6,9,9.9c3.6,3.9,10.2,3.9,14.1,0c2.7-2.7,4.5-4.5,7.5-8.1C269.7,75,269.7,74.7,269.4,74.4L269.4,74.4z"/>
	<path d="M217.8,72.9c0,1.8-1.4,3.2-3.3,3.2c-1.8,0-3.3-1.4-3.3-3.2c0-1.8,1.5-3.2,3.3-3.2C216.4,69.7,217.8,71.1,217.8,72.9z
			M212,72.9c0,1.4,1.1,2.6,2.5,2.6c1.4,0,2.4-1.1,2.4-2.5c0-1.4-1-2.6-2.5-2.6C213.1,70.3,212,71.5,212,72.9z M214,74.5h-0.7v-3.2
		c0.3-0.1,0.7-0.1,1.2-0.1c0.6,0,0.9,0.1,1.1,0.2c0.2,0.1,0.3,0.4,0.3,0.7c0,0.4-0.3,0.6-0.7,0.7v0c0.3,0.1,0.5,0.4,0.6,0.8
		c0.1,0.5,0.2,0.7,0.2,0.8h-0.8c-0.1-0.1-0.2-0.4-0.3-0.8c-0.1-0.4-0.3-0.5-0.7-0.5H214V74.5z M214,72.7h0.4c0.4,0,0.7-0.1,0.7-0.5
		c0-0.3-0.2-0.5-0.7-0.5c-0.2,0-0.3,0-0.4,0V72.7z"/>
</svg>
